<svg width="40" height="40" viewBox="0 0 40 40" fill="none" xmlns="http://www.w3.org/2000/svg">
<path d="M39.2032 8.30859H0.796797C0.356797 8.30859 0 8.66531 0 9.10539V30.8935C0 31.3336 0.356797 31.6903 0.796797 31.6903H39.2032C39.6432 31.6903 40 31.3336 40 30.8935V9.10539C40 8.66531 39.6432 8.30859 39.2032 8.30859ZM38.4064 30.0968H1.59359V9.90219H38.4063L38.4064 30.0968Z" fill="#B991FF"/>
<path d="M34.7673 24.4844H24.2968C23.8568 24.4844 23.5 24.8411 23.5 25.2812C23.5 25.7213 23.8567 26.078 24.2968 26.078H34.7673C35.2073 26.078 35.5641 25.7213 35.5641 25.2812C35.5641 24.8411 35.2073 24.4844 34.7673 24.4844Z" fill="#B991FF"/>
<path d="M34.7673 19.3691H24.2968C23.8568 19.3691 23.5 19.7259 23.5 20.1659C23.5 20.606 23.8567 20.9627 24.2968 20.9627H34.7673C35.2073 20.9627 35.5641 20.606 35.5641 20.1659C35.5641 19.7259 35.2073 19.3691 34.7673 19.3691Z" fill="#B991FF"/>
<path d="M34.811 14.252H34.1835C33.7435 14.252 33.3867 14.6087 33.3867 15.0487C33.3867 15.4888 33.7435 15.8455 34.1835 15.8455H34.811C35.251 15.8455 35.6078 15.4888 35.6078 15.0487C35.6078 14.6087 35.251 14.252 34.811 14.252Z" fill="#B991FF"/>
<path d="M31.155 14.252H24.2968C23.8568 14.252 23.5 14.6087 23.5 15.0487C23.5 15.4888 23.8567 15.8455 24.2968 15.8455H31.155C31.595 15.8455 31.9518 15.4888 31.9518 15.0487C31.9518 14.6087 31.595 14.252 31.155 14.252Z" fill="#B991FF"/>
<path d="M12.5773 20.7852C8.16875 20.7852 4.58203 23.7314 4.58203 27.3527C4.58203 27.7927 4.93875 28.1495 5.37883 28.1495H19.7759C20.2159 28.1495 20.5727 27.7927 20.5727 27.3527C20.5727 23.7313 16.9861 20.7852 12.5773 20.7852ZM6.25773 26.5559C6.70508 24.4066 8.93141 22.7145 11.7211 22.4235V24.1997C11.7211 24.6398 12.0779 24.9965 12.5179 24.9965C12.9579 24.9965 13.3147 24.6398 13.3147 24.1997V22.4129C16.1596 22.6677 18.4434 24.3763 18.897 26.5559H6.25773Z" fill="#B991FF"/>
<path d="M12.5106 11.7246C10.2259 11.7246 8.36719 13.5834 8.36719 15.868C8.36719 18.1527 10.2259 20.0115 12.5106 20.0115C14.7953 20.0115 16.6541 18.1527 16.6541 15.868C16.6541 13.5834 14.7953 11.7246 12.5106 11.7246ZM12.5106 18.4178C11.1046 18.4178 9.96086 17.274 9.96086 15.868C9.96086 14.4621 11.1047 13.3183 12.5106 13.3183C13.9166 13.3183 15.0604 14.4621 15.0604 15.868C15.0604 17.274 13.9166 18.4178 12.5106 18.4178Z" fill="#B991FF"/>
</svg>
