<svg width="24" height="24" viewBox="0 0 24 24" fill="none" xmlns="http://www.w3.org/2000/svg">
<path fill-rule="evenodd" clip-rule="evenodd" d="M3 5.75C2.30964 5.75 1.75 6.30964 1.75 7V17C1.75 17.6904 2.30964 18.25 3 18.25H14C14.6904 18.25 15.25 17.6904 15.25 17V7C15.25 6.30964 14.6904 5.75 14 5.75H3ZM16.75 10.5426V7C16.75 5.48122 15.5188 4.25 14 4.25H3C1.48122 4.25 0.25 5.48122 0.25 7V17C0.25 18.5188 1.48122 19.75 3 19.75H14C15.5188 19.75 16.75 18.5188 16.75 17V13.4574L22.5641 17.6103C22.7927 17.7736 23.0934 17.7954 23.3432 17.6668C23.593 17.5383 23.75 17.2809 23.75 17V6.99997C23.75 6.71903 23.593 6.46165 23.3432 6.33309C23.0934 6.20454 22.7927 6.22637 22.5641 6.38967L16.75 10.5426ZM17.2903 12L22.25 15.5426V8.45736L17.2903 12Z" fill="#7C8493"/>
</svg>
